name Walk5.mot
datacolumns 19
datarows 12
range 1.44100000 1.45200000
endheader

                time	   L_ground_force_vx	   L_ground_force_vy	   L_ground_force_vz	   L_ground_force_px	   L_ground_force_py	   L_ground_force_pz	   R_ground_force_vx	   R_ground_force_vy	   R_ground_force_vz	   R_ground_force_px	   R_ground_force_py	   R_ground_force_pz	   L_ground_torque_x	   L_ground_torque_y	   L_ground_torque_z	   R_ground_torque_x	   R_ground_torque_y	   R_ground_torque_z	
          1.44100000	         36.97022428	        479.61928476	         30.60785623	         -0.12931636	          0.00000000	         -0.07059254	         -0.07022089	          0.76132293	          0.05478470	          0.00060806	          0.00000000	          0.00006248	          0.00000000	          0.58146558	          0.00000000	          0.00000000	          0.00808584	          0.00000000	
          1.44200000	         37.71733684	        482.08174153	         30.77919286	         -0.12921193	          0.00000000	         -0.07053430	         -0.07382368	          0.76179125	          0.05424163	          0.00059616	          0.00000000	          0.00006139	          0.00000000	          0.58477554	          0.00000000	          0.00000000	          0.00876265	          0.00000000	
          1.44300000	         38.46887131	        484.55100310	         30.94753879	         -0.12910621	          0.00000000	         -0.07047467	         -0.07745637	          0.75915696	          0.05342408	          0.00058069	          0.00000000	          0.00005995	          0.00000000	          0.58801255	          0.00000000	          0.00000000	          0.00946617	          0.00000000	
          1.44400000	         39.22484671	        487.02596981	         31.11266972	         -0.12899918	          0.00000000	         -0.07041361	         -0.08110674	          0.75314263	          0.05230993	          0.00056138	          0.00000000	          0.00005812	          0.00000000	          0.59117670	          0.00000000	          0.00000000	          0.01019596	          0.00000000	
          1.44500000	         39.98528581	        489.50551049	         31.27436265	         -0.12889083	          0.00000000	         -0.07035107	         -0.08476136	          0.74345900	          0.05087621	          0.00053796	          0.00000000	          0.00005589	          0.00000000	          0.59427032	          0.00000000	          0.00000000	          0.01095146	          0.00000000	
          1.44600000	         40.75021491	        491.98846258	         31.43239700	         -0.12878116	          0.00000000	         -0.07028703	         -0.08840552	          0.72980511	          0.04909914	          0.00051015	          0.00000000	          0.00005322	          0.00000000	          0.59729745	          0.00000000	          0.00000000	          0.01173194	          0.00000000	
          1.44700000	         41.51966398	        494.47363233	         31.58655558	         -0.12867017	          0.00000000	         -0.07022148	         -0.09202322	          0.71186840	          0.04695417	          0.00047764	          0.00000000	          0.00005008	          0.00000000	          0.60026334	          0.00000000	          0.00000000	          0.01253649	          0.00000000	
          1.44800000	         42.29366703	        496.95979574	         31.73662546	         -0.12855785	          0.00000000	         -0.07015439	         -0.09559704	          0.68932497	          0.04441596	          0.00044014	          0.00000000	          0.00004644	          0.00000000	          0.60317396	          0.00000000	          0.00000000	          0.01336403	          0.00000000	
          1.44900000	         43.07226261	        499.44570035	         31.88239853	         -0.12844423	          0.00000000	         -0.07008574	         -0.09910815	          0.66183984	          0.04145845	          0.00039733	          0.00000000	          0.00004227	          0.00000000	          0.60603572	          0.00000000	          0.00000000	          0.01421328	          0.00000000	
          1.45000000	         43.85549397	        501.93006784	         32.02367158	         -0.12832930	          0.00000000	         -0.07001554	         -0.10253623	          0.62906731	          0.03805490	          0.00034891	          0.00000000	          0.00003754	          0.00000000	          0.60885553	          0.00000000	          0.00000000	          0.01508275	          0.00000000	
          1.45100000	         44.64340866	        504.41159641	         32.16024600	         -0.12821307	          0.00000000	         -0.06994378	         -0.10585939	          0.59065141	          0.03417790	          0.00029454	          0.00000000	          0.00003222	          0.00000000	          0.61164100	          0.00000000	          0.00000000	          0.01597072	          0.00000000	
          1.45200000	         45.43605731	        506.88896251	         32.29192731	         -0.12809557	          0.00000000	         -0.06987046	         -0.10905417	          0.54622636	          0.02979949	          0.00023391	          0.00000000	          0.00002626	          0.00000000	          0.61440071	          0.00000000	          0.00000000	          0.01687524	          0.00000000	
